<svg width="17" height="18" viewBox="0 0 17 18" fill="none" xmlns="http://www.w3.org/2000/svg">
<rect width="16.6538" height="17.06" rx="8.3269" fill="#7A021D"/>
<path d="M6.41078 5.88253C6.41068 6.08333 6.33081 6.27588 6.18875 6.4178C6.04668 6.55972 5.85406 6.6394 5.65325 6.63929C5.45245 6.63919 5.2599 6.55933 5.11798 6.41726C4.97606 6.2752 4.89638 6.08258 4.89648 5.88177C4.89658 5.68096 4.97645 5.48842 5.11852 5.3465C5.26058 5.20457 5.4532 5.1249 5.65401 5.125C5.85482 5.1251 6.04736 5.20497 6.18928 5.34703C6.33121 5.48909 6.41088 5.68172 6.41078 5.88253ZM6.43349 7.19996H4.9192V11.9397H6.43349V7.19996ZM8.82608 7.19996H7.31936V11.9397H8.81094V9.45248C8.81094 8.0669 10.6167 7.93818 10.6167 9.45248V11.9397H12.1121V8.93762C12.1121 6.60182 9.43937 6.68889 8.81094 7.83597L8.82608 7.19996Z" fill="white"/>
</svg>
