<svg width="17" height="18" viewBox="0 0 17 18" fill="none" xmlns="http://www.w3.org/2000/svg">
<rect width="16.6538" height="17.06" rx="8.3269" fill="#7A021D"/>
<path d="M8.32897 6.79542C7.98588 6.79542 7.65049 6.89716 7.36521 7.08778C7.07994 7.27839 6.8576 7.54932 6.7263 7.86629C6.595 8.18327 6.56065 8.53207 6.62758 8.86857C6.69452 9.20507 6.85974 9.51417 7.10234 9.75677C7.34494 9.99938 7.65404 10.1646 7.99054 10.2315C8.32705 10.2985 8.67584 10.2641 8.99282 10.1328C9.3098 10.0015 9.58072 9.77917 9.77134 9.4939C9.96195 9.20863 10.0637 8.87324 10.0637 8.53014C10.0631 8.07025 9.88013 7.62937 9.55494 7.30417C9.22975 6.97898 8.78886 6.79602 8.32897 6.79542ZM8.32897 9.81233C8.07538 9.81233 7.82748 9.73713 7.61663 9.59624C7.40577 9.45535 7.24143 9.2551 7.14439 9.02081C7.04734 8.78652 7.02195 8.52872 7.07142 8.28C7.1209 8.03128 7.24301 7.80282 7.42233 7.6235C7.60165 7.44419 7.83011 7.32207 8.07883 7.2726C8.32755 7.22312 8.58535 7.24851 8.81964 7.34556C9.05393 7.44261 9.25418 7.60695 9.39507 7.8178C9.53595 8.02865 9.61115 8.27655 9.61115 8.53014C9.61115 8.8702 9.47607 9.19633 9.23561 9.43678C8.99515 9.67724 8.66903 9.81233 8.32897 9.81233ZM10.1391 4.68359H6.51883C5.97892 4.68419 5.4613 4.89893 5.07953 5.28071C4.69776 5.66248 4.48302 6.1801 4.48242 6.72V10.3403C4.48302 10.8802 4.69776 11.3978 5.07953 11.7796C5.4613 12.1613 5.97892 12.3761 6.51883 12.3767H10.1391C10.679 12.3761 11.1966 12.1613 11.5784 11.7796C11.9602 11.3978 12.1749 10.8802 12.1755 10.3403V6.72C12.1749 6.1801 11.9602 5.66248 11.5784 5.28071C11.1966 4.89893 10.679 4.68419 10.1391 4.68359ZM11.723 10.3403C11.723 10.7604 11.5561 11.1632 11.2591 11.4602C10.962 11.7573 10.5592 11.9242 10.1391 11.9242H6.51883C6.09876 11.9242 5.6959 11.7573 5.39886 11.4602C5.10183 11.1632 4.93496 10.7604 4.93496 10.3403V6.72C4.93496 6.29993 5.10183 5.89707 5.39886 5.60003C5.6959 5.303 6.09876 5.13613 6.51883 5.13613H10.1391C10.5592 5.13613 10.962 5.303 11.2591 5.60003C11.5561 5.89707 11.723 6.29993 11.723 6.72V10.3403ZM10.6671 6.56916C10.6671 6.64374 10.645 6.71665 10.6035 6.77867C10.5621 6.84069 10.5032 6.88902 10.4343 6.91756C10.3654 6.94611 10.2895 6.95357 10.2164 6.93902C10.1432 6.92447 10.076 6.88856 10.0233 6.83582C9.97056 6.78308 9.93464 6.71588 9.92009 6.64273C9.90554 6.56958 9.91301 6.49375 9.94155 6.42484C9.97009 6.35593 10.0184 6.29704 10.0804 6.2556C10.1425 6.21416 10.2154 6.19204 10.29 6.19204C10.39 6.19204 10.4859 6.23178 10.5566 6.3025C10.6273 6.37322 10.6671 6.46914 10.6671 6.56916Z" fill="white"/>
</svg>
