<?xml version="1.0" encoding="UTF-8"?>
<svg id="Layer_1" data-name="Layer 1" xmlns="http://www.w3.org/2000/svg" viewBox="0 0 18 18">
  <defs>
    <style>
      .cls-1 {
        fill: #fff;
      }

      .cls-2 {
        fill: #7A021D;
      }
    </style>
  </defs>
  <circle class="cls-2" cx="9" cy="9" r="9"/>
  <g>
    <path class="cls-1" d="M10.58,12.3l-3.03.02c-.27,0-.54-.06-.78-.17-.38-.17-.68-.45-.87-.82-.14-.27-.22-.57-.22-.88v-2.91c0-.36.11-.71.29-1.01.29-.48.79-.78,1.34-.85.06,0,.11-.01.18-.01h2.73c.16,0,.31-.01.47.01.98.15,1.63.92,1.63,1.91v1.4s-.02,1.55-.02,1.55c0,.16-.02.3-.07.45-.21.72-.87,1.29-1.66,1.3ZM10.71,7.66c.14.01.26-.06.33-.17s.1-.27.03-.39c-.1-.19-.35-.28-.54-.18-.17.09-.25.3-.19.48.05.15.2.25.36.26ZM10.59,9.06c.02-.65-.35-1.24-.92-1.51-.34-.16-.71-.18-1.07-.09-.56.14-.99.58-1.13,1.11-.16.59.03,1.21.47,1.61.65.58,1.63.54,2.23-.1.26-.27.41-.63.43-1.02Z"/>
    <path class="cls-1" d="M8.34,9.83c-.26-.21-.4-.52-.4-.85s.14-.63.4-.83c.22-.17.5-.24.78-.21.52.06.91.48.94,1,.02.35-.13.68-.41.89-.38.29-.93.29-1.31,0Z"/>
  </g>
</svg>