<svg width="50" height="8" viewBox="0 0 50 8" fill="none" xmlns="http://www.w3.org/2000/svg">
<path d="M2.63454 7.78478C2.14463 7.81274 1.71895 7.73009 1.35749 7.53682C0.995906 7.34129 0.710048 7.05724 0.499918 6.68467C0.292055 6.31198 0.17369 5.87274 0.144821 5.36695C0.115953 4.86117 0.183572 4.41131 0.347678 4.01739C0.514052 3.62333 0.765799 3.30974 1.10292 3.0766C1.43991 2.84119 1.85336 2.70951 2.34327 2.68155C2.90802 2.64931 3.38675 2.76421 3.77943 3.02623C4.17199 3.28599 4.45791 3.65081 4.63719 4.12071L3.82347 4.39584C3.70996 4.08147 3.53355 3.84124 3.29425 3.67513C3.05481 3.50676 2.75251 3.43299 2.38735 3.45384C2.05847 3.47261 1.78824 3.56198 1.57665 3.72197C1.36732 3.88182 1.21473 4.09874 1.11887 4.37272C1.02515 4.6443 0.98738 4.95934 1.00557 5.31783C1.02602 5.67619 1.09832 5.98608 1.22246 6.2475C1.34875 6.50652 1.5261 6.70347 1.75452 6.83834C1.98294 6.97321 2.26159 7.03126 2.59046 7.01249C2.95563 6.99165 3.24757 6.88396 3.46629 6.68944C3.68501 6.49492 3.83294 6.23617 3.91008 5.9132L4.74981 6.09396C4.62516 6.5812 4.38268 6.97732 4.02236 7.28232C3.6619 7.58506 3.1993 7.75254 2.63454 7.78478ZM7.79412 7.49029C7.30421 7.51825 6.87853 7.4356 6.51707 7.24233C6.15548 7.0468 5.86963 6.76275 5.65949 6.39018C5.45163 6.01749 5.33327 5.57825 5.3044 5.07246C5.27553 4.56668 5.34315 4.11682 5.50726 3.7229C5.67363 3.32884 5.92538 3.01525 6.2625 2.78211C6.59948 2.5467 7.01293 2.41502 7.50284 2.38706C7.99275 2.35909 8.4185 2.44288 8.78009 2.63841C9.14381 2.83155 9.42961 3.11446 9.63747 3.48716C9.8476 3.85972 9.9671 4.2989 9.99597 4.80468C10.0248 5.31047 9.95608 5.76039 9.78971 6.15445C9.6256 6.54837 9.37392 6.8631 9.03466 7.09864C8.69754 7.33177 8.28403 7.46232 7.79412 7.49029ZM7.75004 6.718C8.07904 6.70149 8.34821 6.61332 8.55753 6.45346C8.76912 6.29348 8.92171 6.07656 9.01531 5.80271C9.11117 5.52873 9.14887 5.21256 9.12842 4.8542C9.10796 4.49584 9.03466 4.18828 8.90851 3.93153C8.78449 3.67237 8.60827 3.47536 8.37985 3.34049C8.1537 3.20549 7.87606 3.14511 7.54692 3.15935C7.21792 3.17585 6.94876 3.26403 6.73943 3.42388C6.53011 3.58374 6.37752 3.80065 6.28166 4.07463C6.18806 4.34848 6.15149 4.66459 6.17195 5.02295C6.1924 5.38131 6.26464 5.69006 6.38865 5.94922C6.51254 6.2061 6.68756 6.40205 6.91371 6.53704C7.14213 6.67191 7.42091 6.73223 7.75004 6.718ZM10.9491 7.20782L10.6694 2.30872L11.4077 2.26658L13.3 5.64007L14.7962 2.07317L15.5345 2.03103L15.8141 6.93013L15.0486 6.97382L14.8694 3.83364L13.5449 7.05965L13.2183 7.0783L11.5387 4.02374L11.7179 7.16393L10.9491 7.20782ZM16.9741 6.86393L16.6944 1.96483L17.5143 1.91803L17.794 6.81713L16.9741 6.86393ZM18.9492 6.7512L18.6695 1.8521L19.4997 1.80472L21.9694 5.12819L21.7723 1.675L22.6024 1.62762L22.882 6.52672L22.0519 6.5741L19.5822 3.25063L19.7793 6.70382L18.9492 6.7512ZM25.9959 6.45139C25.6784 6.46951 25.3769 6.43097 25.0916 6.33576C24.8084 6.23814 24.5552 6.08649 24.3318 5.88079C24.1107 5.67496 23.9322 5.41778 23.7963 5.10925C23.6602 4.79844 23.5805 4.43891 23.5572 4.03066C23.5267 3.49538 23.6004 3.03266 23.7783 2.6425C23.9562 2.25007 24.2129 1.94302 24.5484 1.72135C24.8837 1.49741 25.2692 1.37302 25.7046 1.34816C26.3079 1.31373 26.7934 1.4271 27.161 1.68828C27.5308 1.94706 27.7924 2.32578 27.9461 2.82445L27.1167 3.0049C27.0071 2.71989 26.842 2.49722 26.6212 2.33688C26.4003 2.17428 26.1265 2.1023 25.7999 2.12094C25.4708 2.13517 25.2016 2.22222 24.9922 2.38207C24.7829 2.54193 24.6303 2.75884 24.5345 3.03282C24.4409 3.30667 24.4043 3.62278 24.4248 3.98114C24.4452 4.3395 24.5175 4.64826 24.6415 4.90741C24.7654 5.1643 24.9404 5.36024 25.1665 5.49524C25.3949 5.63011 25.6737 5.69042 26.0029 5.67619C26.2502 5.66435 26.4643 5.60776 26.6451 5.50642C26.8258 5.40281 26.9698 5.25465 27.0771 5.06193C27.1843 4.86695 27.2503 4.62767 27.2751 4.34409L26.4109 4.39341L26.3742 3.75041L28.1093 3.65137C28.1159 3.68741 28.1224 3.74051 28.1286 3.81069C28.1349 3.88087 28.1384 3.92277 28.1392 3.93638C28.1656 4.39907 28.0973 4.81597 27.9341 5.18709C27.7731 5.55581 27.5284 5.85194 27.1998 6.07548C26.8712 6.29903 26.4699 6.42433 25.9959 6.45139ZM32.4064 6.0855C32.048 6.10596 31.7212 6.06203 31.4261 5.95373C31.1332 5.84529 30.8871 5.68071 30.6879 5.45998C30.4909 5.23685 30.3583 4.96681 30.2901 4.64986L31.1333 4.47203C31.2224 4.7582 31.3838 4.97426 31.6174 5.12022C31.8533 5.26604 32.1186 5.33053 32.4135 5.3137C32.5881 5.30374 32.751 5.26713 32.9022 5.2039C33.0533 5.14066 33.1735 5.05416 33.2628 4.94439C33.3544 4.83449 33.3958 4.70356 33.3871 4.55159C33.3833 4.48355 33.3684 4.42182 33.3424 4.36642C33.3164 4.30874 33.2794 4.25852 33.2314 4.21574C33.1858 4.17284 33.1267 4.13525 33.0544 4.10297C32.9841 4.0683 32.9028 4.03994 32.8106 4.0179L31.5236 3.7159C31.4129 3.69036 31.2926 3.65514 31.1626 3.61022C31.0347 3.5629 30.9115 3.49599 30.7928 3.40947C30.6762 3.32055 30.5775 3.20558 30.4966 3.06457C30.4179 2.92116 30.3724 2.74171 30.3601 2.52624C30.3421 2.21098 30.4064 1.94221 30.553 1.71995C30.7017 1.49529 30.908 1.32196 31.1718 1.19995C31.4379 1.07781 31.7366 1.00843 32.0678 0.991797C32.4036 0.974906 32.7063 1.01565 32.9759 1.11404C33.2454 1.21016 33.4746 1.35978 33.6637 1.56288C33.8528 1.76598 33.9922 2.01629 34.082 2.31381L33.2096 2.5172C33.1635 2.34689 33.0848 2.20461 32.9736 2.09036C32.8646 1.97371 32.7334 1.8879 32.58 1.83294C32.429 1.77785 32.2694 1.75282 32.1013 1.75786C31.9379 1.76492 31.7874 1.79854 31.6497 1.85873C31.5142 1.91653 31.4061 1.99551 31.3253 2.09569C31.2468 2.19574 31.2112 2.30928 31.2185 2.43629C31.2253 2.5565 31.2673 2.65309 31.3442 2.72606C31.4211 2.79677 31.5141 2.85176 31.6233 2.89104C31.7346 2.92792 31.8467 2.95793 31.9595 2.98107L32.8513 3.17593C32.9733 3.20082 33.1107 3.23621 33.2635 3.2821C33.4163 3.32799 33.5647 3.39575 33.7086 3.48538C33.8525 3.57501 33.9732 3.69669 34.0707 3.85041C34.1705 4.004 34.2274 4.20327 34.2414 4.44822C34.2559 4.70225 34.2153 4.9287 34.1197 5.12757C34.0263 5.32405 33.8936 5.49091 33.7217 5.62815C33.5497 5.76539 33.3499 5.87237 33.1222 5.94908C32.8967 6.02566 32.6581 6.07113 32.4064 6.0855ZM37.273 5.80773C36.7831 5.8357 36.3574 5.75304 35.9959 5.55978C35.6343 5.36425 35.3485 5.0802 35.1383 4.70763C34.9305 4.33494 34.8121 3.8957 34.7833 3.38991C34.7544 2.88412 34.822 2.43427 34.9861 2.04034C35.1525 1.64629 35.4042 1.33269 35.7414 1.09956C36.0783 0.864151 36.4918 0.732467 36.9817 0.704505C37.4716 0.676542 37.8974 0.760328 38.2589 0.955861C38.6227 1.149 38.9085 1.43191 39.1163 1.80461C39.3265 2.17717 39.446 2.61635 39.4748 3.12213C39.5037 3.62792 39.4349 4.07784 39.2686 4.47189C39.1045 4.86582 38.8528 5.18055 38.5135 5.41608C38.1764 5.64922 37.7629 5.77977 37.273 5.80773ZM37.2289 5.03545C37.5579 5.01894 37.8271 4.93076 38.0364 4.77091C38.248 4.61093 38.4006 4.39401 38.4942 4.12016C38.59 3.84618 38.6277 3.53001 38.6073 3.17165C38.5868 2.81329 38.5135 2.50573 38.3874 2.24897C38.2633 1.98982 38.0871 1.79281 37.8587 1.65794C37.6326 1.52294 37.3549 1.46256 37.0258 1.47679C36.6968 1.4933 36.4276 1.58147 36.2183 1.74133C36.009 1.90118 35.8564 2.1181 35.7605 2.39208C35.6669 2.66593 35.6303 2.98203 35.6508 3.34039C35.6713 3.69875 35.7435 4.00751 35.8675 4.26667C35.9914 4.52355 36.1664 4.71949 36.3926 4.85449C36.621 4.98936 36.8998 5.04968 37.2289 5.03545ZM42.5056 5.50907C42.0157 5.53703 41.5901 5.45438 41.2286 5.26112C40.867 5.06558 40.5812 4.78153 40.371 4.40897C40.1632 4.03628 40.0448 3.59704 40.0159 3.09125C39.9871 2.58546 40.0547 2.13561 40.2188 1.74168C40.3852 1.34763 40.6369 1.03403 40.974 0.800894C41.311 0.565488 41.7245 0.433804 42.2144 0.405842C42.7043 0.37788 43.13 0.461665 43.4916 0.657198C43.8553 0.850335 44.1411 1.13325 44.349 1.50594C44.5591 1.87851 44.6786 2.31768 44.7075 2.82347C44.7364 3.32926 44.6676 3.77918 44.5012 4.17323C44.3371 4.56716 44.0854 4.88189 43.7462 5.11742C43.4091 5.35056 42.9956 5.48111 42.5056 5.50907ZM42.4616 4.73678C42.7906 4.72028 43.0597 4.6321 43.2691 4.47225C43.4806 4.31226 43.6332 4.09535 43.7268 3.8215C43.8227 3.54752 43.8604 3.23135 43.8399 2.87299C43.8195 2.51463 43.7462 2.20707 43.62 1.95031C43.496 1.69116 43.3198 1.49415 43.0914 1.35928C42.8652 1.22428 42.5876 1.1639 42.2585 1.17813C41.9294 1.19463 41.6603 1.28281 41.451 1.44267C41.2416 1.60252 41.089 1.81944 40.9932 2.09342C40.8996 2.36727 40.863 2.68337 40.8835 3.04173C40.9039 3.40009 40.9762 3.70885 41.1002 3.968C41.2241 4.22489 41.3991 4.42083 41.6252 4.55583C41.8537 4.6907 42.1324 4.75102 42.4616 4.73678ZM45.6606 5.2266L45.381 0.327501L46.2111 0.280121L48.6808 3.60359L48.4837 0.150406L49.3138 0.103026L49.5935 5.00213L48.7633 5.04951L46.2936 1.72604L46.4907 5.17922L45.6606 5.2266Z" fill="#7A021D"/>
</svg>
