<svg width="254" height="50" viewBox="0 0 254 50" fill="none" xmlns="http://www.w3.org/2000/svg">
<mask id="path-1-outside-1_619_5293" maskUnits="userSpaceOnUse" x="-1.9852" y="-1.19241" width="258.685" height="51.5151" fill="black">
<rect fill="white" x="-1.9852" y="-1.19241" width="258.685" height="51.5151"/>
<path d="M1.72293 43.3971L2.01087 43.0579C4.7387 46.2693 7.9667 47.4694 12.7787 47.1961C17.0657 46.9526 20.8566 44.1548 20.6373 40.2936C20.183 32.2955 3.07917 34.051 2.49169 23.7085C2.2071 18.6982 6.03062 14.9302 10.8864 14.6544C12.8986 14.5401 16.0796 14.9127 19.0327 16.6818L18.7912 17.0645C15.8766 15.201 12.7987 15.0991 10.9177 15.206C6.45566 15.4594 3.62 18.8485 3.79494 21.9283C4.21531 29.3289 21.3726 26.9708 22.028 38.5084C22.37 44.53 17.797 47.4644 12.81 47.7477C8.04177 48.0185 4.50234 46.7439 1.72293 43.3971Z"/>
<path d="M37.0619 45.909L33.5623 46.1078L31.7633 14.4369L24.6563 15.2556L24.6041 14.3363L42.3647 13.3275L42.4169 14.2468L35.2629 14.2381L37.0619 45.909Z"/>
<path d="M51.1042 12.831L60.1194 29.3814L67.3775 11.9067L67.8149 11.8818L60.4413 29.6398L61.2872 44.5329L57.7876 44.7317L56.9416 29.8386L47.6046 13.0298L51.1042 12.831Z"/>
<path d="M75.3479 43.7342L73.5202 11.5578L77.0199 11.359L78.8189 43.0298L90.6066 41.9452L90.6588 42.8646L75.3479 43.7342Z"/>
<path d="M96.7678 42.5176L94.9401 10.3411L108.632 9.56331L108.685 10.4826L98.4684 10.6479L99.3379 25.9547L107.888 25.054L107.941 25.9733L99.3666 26.4604L100.239 41.8131L112.026 40.7285L112.079 41.6479L96.7678 42.5176Z"/>
<path d="M116.17 36.8962L116.458 36.5571C119.186 39.7685 122.414 40.9686 127.226 40.6952C131.513 40.4517 135.304 37.654 135.084 33.7928C134.63 25.7946 117.526 27.5501 116.939 17.2077C116.654 12.1973 120.478 8.42933 125.333 8.15351C127.346 8.03921 130.527 8.4119 133.48 10.181L133.238 10.5636C130.324 8.70012 127.246 8.59826 125.365 8.70511C120.903 8.95856 118.067 12.3477 118.242 15.4274C118.662 22.828 135.82 20.47 136.475 32.0076C136.817 38.0292 132.244 40.9636 127.257 41.2468C122.489 41.5177 118.949 40.2431 116.17 36.8962Z"/>
<path d="M159.482 6.67495L160.834 30.4855C161.184 36.645 157.792 39.5124 153.112 39.7783C146.594 40.1485 142.575 38.9472 142.166 31.7304L140.803 7.73597L144.302 7.53719L145.655 31.3478C146.005 37.5073 148.011 39.6068 152.867 39.331C157.285 39.08 160.747 36.6699 160.397 30.5104L159.044 6.6998L159.482 6.67495Z"/>
<path d="M168.706 6.61214L169.74 24.8148L176.696 24.4197C183.826 24.0147 182.792 5.81202 175.662 6.21705L168.706 6.61214ZM169.766 25.2745L170.508 38.329L167.008 38.5277L165.18 6.35126L175.636 5.75739C188.365 5.0343 189.452 24.1563 176.722 24.8794L169.766 25.2745Z"/>
<path d="M194.654 5.13823L195.688 23.3409L202.644 22.9458C209.774 22.5408 208.74 4.33811 201.61 4.74314L194.654 5.13823ZM195.714 23.8006L196.456 36.855L192.956 37.0538L191.129 4.87735L201.584 4.28347C214.314 3.56039 215.4 22.6824 202.67 23.4055L195.714 23.8006Z"/>
<path d="M218.904 35.5799L217.077 3.40343L220.576 3.20465L222.375 34.8755L234.163 33.7909L234.215 34.7102L218.904 35.5799Z"/>
<path d="M234.98 2.3865L243.995 18.9369L251.253 1.46214L251.691 1.43729L244.317 19.1953L245.163 34.0884L241.663 34.2872L240.817 19.3941L231.48 2.58528L234.98 2.3865Z"/>
</mask>
<path d="M1.72293 43.3971L2.01087 43.0579C4.7387 46.2693 7.9667 47.4694 12.7787 47.1961C17.0657 46.9526 20.8566 44.1548 20.6373 40.2936C20.183 32.2955 3.07917 34.051 2.49169 23.7085C2.2071 18.6982 6.03062 14.9302 10.8864 14.6544C12.8986 14.5401 16.0796 14.9127 19.0327 16.6818L18.7912 17.0645C15.8766 15.201 12.7987 15.0991 10.9177 15.206C6.45566 15.4594 3.62 18.8485 3.79494 21.9283C4.21531 29.3289 21.3726 26.9708 22.028 38.5084C22.37 44.53 17.797 47.4644 12.81 47.7477C8.04177 48.0185 4.50234 46.7439 1.72293 43.3971Z" fill="#7A021D"/>
<path d="M37.0619 45.909L33.5623 46.1078L31.7633 14.4369L24.6563 15.2556L24.6041 14.3363L42.3647 13.3275L42.4169 14.2468L35.2629 14.2381L37.0619 45.909Z" fill="#7A021D"/>
<path d="M51.1042 12.831L60.1194 29.3814L67.3775 11.9067L67.8149 11.8818L60.4413 29.6398L61.2872 44.5329L57.7876 44.7317L56.9416 29.8386L47.6046 13.0298L51.1042 12.831Z" fill="#7A021D"/>
<path d="M75.3479 43.7342L73.5202 11.5578L77.0199 11.359L78.8189 43.0298L90.6066 41.9452L90.6588 42.8646L75.3479 43.7342Z" fill="#7A021D"/>
<path d="M96.7678 42.5176L94.9401 10.3411L108.632 9.56331L108.685 10.4826L98.4684 10.6479L99.3379 25.9547L107.888 25.054L107.941 25.9733L99.3666 26.4604L100.239 41.8131L112.026 40.7285L112.079 41.6479L96.7678 42.5176Z" fill="#7A021D"/>
<path d="M116.17 36.8962L116.458 36.5571C119.186 39.7685 122.414 40.9686 127.226 40.6952C131.513 40.4517 135.304 37.654 135.084 33.7928C134.63 25.7946 117.526 27.5501 116.939 17.2077C116.654 12.1973 120.478 8.42933 125.333 8.15351C127.346 8.03921 130.527 8.4119 133.48 10.181L133.238 10.5636C130.324 8.70012 127.246 8.59826 125.365 8.70511C120.903 8.95856 118.067 12.3477 118.242 15.4274C118.662 22.828 135.82 20.47 136.475 32.0076C136.817 38.0292 132.244 40.9636 127.257 41.2468C122.489 41.5177 118.949 40.2431 116.17 36.8962Z" fill="#7A021D"/>
<path d="M159.482 6.67495L160.834 30.4855C161.184 36.645 157.792 39.5124 153.112 39.7783C146.594 40.1485 142.575 38.9472 142.166 31.7304L140.803 7.73597L144.302 7.53719L145.655 31.3478C146.005 37.5073 148.011 39.6068 152.867 39.331C157.285 39.08 160.747 36.6699 160.397 30.5104L159.044 6.6998L159.482 6.67495Z" fill="#7A021D"/>
<path d="M168.706 6.61214L169.74 24.8148L176.696 24.4197C183.826 24.0147 182.792 5.81202 175.662 6.21705L168.706 6.61214ZM169.766 25.2745L170.508 38.329L167.008 38.5277L165.18 6.35126L175.636 5.75739C188.365 5.0343 189.452 24.1563 176.722 24.8794L169.766 25.2745Z" fill="#7A021D"/>
<path d="M194.654 5.13823L195.688 23.3409L202.644 22.9458C209.774 22.5408 208.74 4.33811 201.61 4.74314L194.654 5.13823ZM195.714 23.8006L196.456 36.855L192.956 37.0538L191.129 4.87735L201.584 4.28347C214.314 3.56039 215.4 22.6824 202.67 23.4055L195.714 23.8006Z" fill="#7A021D"/>
<path d="M218.904 35.5799L217.077 3.40343L220.576 3.20465L222.375 34.8755L234.163 33.7909L234.215 34.7102L218.904 35.5799Z" fill="#7A021D"/>
<path d="M234.98 2.3865L243.995 18.9369L251.253 1.46214L251.691 1.43729L244.317 19.1953L245.163 34.0884L241.663 34.2872L240.817 19.3941L231.48 2.58528L234.98 2.3865Z" fill="#7A021D"/>
<path d="M1.72293 43.3971L2.01087 43.0579C4.7387 46.2693 7.9667 47.4694 12.7787 47.1961C17.0657 46.9526 20.8566 44.1548 20.6373 40.2936C20.183 32.2955 3.07917 34.051 2.49169 23.7085C2.2071 18.6982 6.03062 14.9302 10.8864 14.6544C12.8986 14.5401 16.0796 14.9127 19.0327 16.6818L18.7912 17.0645C15.8766 15.201 12.7987 15.0991 10.9177 15.206C6.45566 15.4594 3.62 18.8485 3.79494 21.9283C4.21531 29.3289 21.3726 26.9708 22.028 38.5084C22.37 44.53 17.797 47.4644 12.81 47.7477C8.04177 48.0185 4.50234 46.7439 1.72293 43.3971Z" stroke="#7A021D" stroke-width="2.6402" mask="url(#path-1-outside-1_619_5293)"/>
<path d="M37.0619 45.909L33.5623 46.1078L31.7633 14.4369L24.6563 15.2556L24.6041 14.3363L42.3647 13.3275L42.4169 14.2468L35.2629 14.2381L37.0619 45.909Z" stroke="#7A021D" stroke-width="2.6402" mask="url(#path-1-outside-1_619_5293)"/>
<path d="M51.1042 12.831L60.1194 29.3814L67.3775 11.9067L67.8149 11.8818L60.4413 29.6398L61.2872 44.5329L57.7876 44.7317L56.9416 29.8386L47.6046 13.0298L51.1042 12.831Z" stroke="#7A021D" stroke-width="2.6402" mask="url(#path-1-outside-1_619_5293)"/>
<path d="M75.3479 43.7342L73.5202 11.5578L77.0199 11.359L78.8189 43.0298L90.6066 41.9452L90.6588 42.8646L75.3479 43.7342Z" stroke="#7A021D" stroke-width="2.6402" mask="url(#path-1-outside-1_619_5293)"/>
<path d="M96.7678 42.5176L94.9401 10.3411L108.632 9.56331L108.685 10.4826L98.4684 10.6479L99.3379 25.9547L107.888 25.054L107.941 25.9733L99.3666 26.4604L100.239 41.8131L112.026 40.7285L112.079 41.6479L96.7678 42.5176Z" stroke="#7A021D" stroke-width="2.6402" mask="url(#path-1-outside-1_619_5293)"/>
<path d="M116.17 36.8962L116.458 36.5571C119.186 39.7685 122.414 40.9686 127.226 40.6952C131.513 40.4517 135.304 37.654 135.084 33.7928C134.63 25.7946 117.526 27.5501 116.939 17.2077C116.654 12.1973 120.478 8.42933 125.333 8.15351C127.346 8.03921 130.527 8.4119 133.48 10.181L133.238 10.5636C130.324 8.70012 127.246 8.59826 125.365 8.70511C120.903 8.95856 118.067 12.3477 118.242 15.4274C118.662 22.828 135.82 20.47 136.475 32.0076C136.817 38.0292 132.244 40.9636 127.257 41.2468C122.489 41.5177 118.949 40.2431 116.17 36.8962Z" stroke="#7A021D" stroke-width="2.6402" mask="url(#path-1-outside-1_619_5293)"/>
<path d="M159.482 6.67495L160.834 30.4855C161.184 36.645 157.792 39.5124 153.112 39.7783C146.594 40.1485 142.575 38.9472 142.166 31.7304L140.803 7.73597L144.302 7.53719L145.655 31.3478C146.005 37.5073 148.011 39.6068 152.867 39.331C157.285 39.08 160.747 36.6699 160.397 30.5104L159.044 6.6998L159.482 6.67495Z" stroke="#7A021D" stroke-width="2.6402" mask="url(#path-1-outside-1_619_5293)"/>
<path d="M168.706 6.61214L169.74 24.8148L176.696 24.4197C183.826 24.0147 182.792 5.81202 175.662 6.21705L168.706 6.61214ZM169.766 25.2745L170.508 38.329L167.008 38.5277L165.18 6.35126L175.636 5.75739C188.365 5.0343 189.452 24.1563 176.722 24.8794L169.766 25.2745Z" stroke="#7A021D" stroke-width="2.6402" mask="url(#path-1-outside-1_619_5293)"/>
<path d="M194.654 5.13823L195.688 23.3409L202.644 22.9458C209.774 22.5408 208.74 4.33811 201.61 4.74314L194.654 5.13823ZM195.714 23.8006L196.456 36.855L192.956 37.0538L191.129 4.87735L201.584 4.28347C214.314 3.56039 215.4 22.6824 202.67 23.4055L195.714 23.8006Z" stroke="#7A021D" stroke-width="2.6402" mask="url(#path-1-outside-1_619_5293)"/>
<path d="M218.904 35.5799L217.077 3.40343L220.576 3.20465L222.375 34.8755L234.163 33.7909L234.215 34.7102L218.904 35.5799Z" stroke="#7A021D" stroke-width="2.6402" mask="url(#path-1-outside-1_619_5293)"/>
<path d="M234.98 2.3865L243.995 18.9369L251.253 1.46214L251.691 1.43729L244.317 19.1953L245.163 34.0884L241.663 34.2872L240.817 19.3941L231.48 2.58528L234.98 2.3865Z" stroke="#7A021D" stroke-width="2.6402" mask="url(#path-1-outside-1_619_5293)"/>
</svg>
